<?xml version="1.0" encoding="UTF-8"?>
<svg id="_Слой_1" data-name="Слой 1" xmlns="http://www.w3.org/2000/svg" viewBox="0 0 630 283.5">
  <defs>
    <style>
      .cls-1 {
        fill: #1d1d1b;
        stroke: #1d1d1b;
        stroke-miterlimit: 10;
      }
    </style>
  </defs>
  <path class="cls-1" d="M302.37,249.67h-70.29c0-24.64-4.24-48.31-12.01-70.29-3.91-11.05-8.71-21.69-14.33-31.81-7.67-13.86-16.87-26.77-27.35-38.48-5.21-5.84-10.76-11.38-16.6-16.6-5.84,5.21-11.38,10.76-16.6,16.6-10.48,11.72-19.68,24.62-27.35,38.48-5.62,10.11-10.43,20.76-14.33,31.81-7.77,21.99-12.01,45.65-12.01,70.29H21.21c0-24.07,3.03-47.45,8.73-69.74,.04-.2,.1-.37,.14-.55,5.99-23.25,14.88-45.36,26.24-65.86h.02c.82-1.48,1.66-2.97,2.5-4.43,9.39-16.23,20.35-31.42,32.67-45.36,2.85-3.26,5.8-6.44,8.84-9.57,5.14-5.35,10.5-10.47,16.09-15.37,13.94-12.32,29.13-23.27,45.36-32.67,16.23,9.39,31.42,20.35,45.36,32.67,5.58,4.9,10.95,10.02,16.09,15.37,3.05,3.12,5.99,6.31,8.84,9.57,12.32,13.94,23.27,29.13,32.67,45.36,.84,1.46,1.68,2.95,2.5,4.43h.02c11.36,20.5,20.25,42.6,26.24,65.86,.04,.18,.1,.35,.14,.55,5.7,22.3,8.73,45.67,8.73,69.74Z"/>
  <path class="cls-1" d="M451.74,216.46c-.04,.2-.1,.37-.14,.55-5.99,23.25-14.88,45.36-26.24,65.86h-.02c-12.48-3.2-24.29-8.08-35.16-14.37-9.55-5.53-18.37-12.14-26.34-19.68-9.82-9.31-18.31-20.01-25.15-31.81-11.95-20.68-18.8-44.69-18.8-70.29V6.14h70.29V146.72c0,35.85,26.87,65.45,61.56,69.74Z"/>
  <path class="cls-1" d="M618.79,72.54c-34.7,4.3-61.56,33.9-61.56,69.74,0-25.6-6.85-49.61-18.8-70.29-4.69-8.08-10.15-15.66-16.34-22.63,2.77-3.18,5.72-6.25,8.81-9.18,7.97-7.54,16.79-14.16,26.34-19.68,10.88-6.29,22.69-11.17,35.16-14.37h.02c11.36,20.5,20.25,42.6,26.24,65.86,.04,.18,.1,.35,.14,.55Z"/>
  <path class="cls-1" d="M557.23,129.08v120.6h-70.29v-120.6c0-21.96,6.85-42.56,18.8-60.3,4.69-6.93,10.15-13.43,16.34-19.41,6.19,5.98,11.66,12.48,16.34,19.41,11.27,16.73,18.01,36,18.74,56.56,.04,1.24,.07,2.49,.07,3.74Z"/>
  <path class="cls-1" d="M522.09,49.36c-6.19,6.97-11.66,14.55-16.34,22.63-11.95,20.68-18.8,44.69-18.8,70.29,0-35.85-26.87-65.45-61.56-69.74,.04-.2,.1-.37,.14-.55,5.99-23.25,14.88-45.36,26.24-65.86h.02c12.48,3.2,24.29,8.08,35.16,14.37,9.55,5.53,18.37,12.14,26.34,19.68,3.08,2.93,6.03,5.99,8.81,9.18Z"/>
</svg>