<?xml version="1.0" encoding="UTF-8"?>
<svg id="_Слой_1" data-name="Слой 1" xmlns="http://www.w3.org/2000/svg" viewBox="0 0 576 283.5">
  <defs>
    <style>
      .cls-1 {
        fill: #f6f6f6;
      }
    </style>
  </defs>
  <path class="cls-1" d="M274.98,247.56h-65.87c0-23.09-3.97-45.27-11.25-65.87-3.66-10.36-8.16-20.33-13.43-29.81-7.19-12.99-15.81-25.09-25.63-36.06-4.89-5.47-10.08-10.67-15.55-15.55-5.47,4.89-10.67,10.08-15.55,15.55-9.83,10.98-18.44,23.07-25.63,36.06-5.27,9.48-9.77,19.45-13.43,29.81-7.28,20.6-11.25,42.78-11.25,65.87H11.5c0-22.56,2.84-44.46,8.18-65.36,.04-.18,.09-.35,.13-.51,5.62-21.79,13.94-42.5,24.59-61.72h.02c.77-1.39,1.56-2.78,2.34-4.15,8.8-15.2,19.07-29.44,30.61-42.5,2.67-3.06,5.43-6.04,8.29-8.97,4.81-5.01,9.84-9.81,15.08-14.4,13.06-11.55,27.3-21.81,42.5-30.61,15.2,8.8,29.44,19.07,42.5,30.61,5.23,4.59,10.26,9.39,15.08,14.4,2.85,2.93,5.62,5.91,8.29,8.97,11.55,13.06,21.81,27.3,30.61,42.5,.79,1.37,1.57,2.76,2.34,4.15h.02c10.65,19.21,18.97,39.92,24.59,61.72,.04,.16,.09,.33,.13,.51,5.34,20.9,8.18,42.8,8.18,65.36Z"/>
  <path class="cls-1" d="M414.95,216.43c-.04,.18-.09,.35-.13,.51-5.62,21.79-13.94,42.5-24.59,61.72h-.02c-11.69-3-22.76-7.58-32.95-13.47-8.95-5.18-17.22-11.38-24.68-18.44-9.2-8.73-17.16-18.75-23.57-29.81-11.2-19.38-17.62-41.88-17.62-65.87V19.34h65.87V151.08c0,33.59,25.18,61.33,57.69,65.36Z"/>
  <path class="cls-1" d="M571.5,81.57c-32.51,4.03-57.69,31.76-57.69,65.36,0-23.99-6.42-46.49-17.62-65.87-4.39-7.58-9.51-14.67-15.31-21.21,2.6-2.98,5.36-5.86,8.25-8.6,7.47-7.06,15.74-13.27,24.68-18.44,10.19-5.89,21.26-10.47,32.95-13.47h.02c10.65,19.21,18.97,39.92,24.59,61.72,.04,.16,.09,.33,.13,.51Z"/>
  <path class="cls-1" d="M513.81,134.55v113.01h-65.87v-113.01c0-20.58,6.42-39.88,17.62-56.51,4.39-6.5,9.51-12.59,15.31-18.19,5.8,5.6,10.92,11.69,15.31,18.19,10.56,15.68,16.87,33.74,17.56,53.01,.04,1.16,.06,2.33,.06,3.5Z"/>
  <path class="cls-1" d="M480.87,59.85c-5.8,6.53-10.92,13.63-15.31,21.21-11.2,19.38-17.62,41.88-17.62,65.87,0-33.59-25.18-61.33-57.69-65.36,.04-.18,.09-.35,.13-.51,5.62-21.79,13.94-42.5,24.59-61.72h.02c11.69,3,22.76,7.58,32.95,13.47,8.95,5.18,17.22,11.38,24.68,18.44,2.89,2.74,5.65,5.62,8.25,8.6Z"/>
</svg>